<?xml version="1.0" encoding="UTF-8"?>
<svg id="Layer_2" data-name="Layer 2" xmlns="http://www.w3.org/2000/svg" xmlns:xlink="http://www.w3.org/1999/xlink" viewBox="0 0 1082.63 729.15">
  <defs>
    <style>
      .cls-1 {
        fill: url(#linear-gradient-2);
      }

      .cls-2 {
        fill: url(#linear-gradient);
      }

      .cls-3 {
        fill: #fff;
      }
    </style>
    <linearGradient id="linear-gradient" x1="792.86" y1="615.54" x2="829.55" y2="407.46" gradientUnits="userSpaceOnUse">
      <stop offset=".25" stop-color="#fff" stop-opacity="0"/>
      <stop offset="1" stop-color="#000" stop-opacity=".3"/>
    </linearGradient>
    <linearGradient id="linear-gradient-2" x1="470.39" y1="631.39" x2="420.17" y2="346.56" xlink:href="#linear-gradient"/>
  </defs>
  <g id="Layer_1-2" data-name="Layer 1">
    <g>
      <path id="Base" class="cls-3" d="M40.05,729.15c-2.42,0-4.88-.22-7.35-.68-21.71-4.03-36.05-24.9-32.03-46.61,1.2-6.45,30.05-159.69,98.17-319.68,40.64-95.46,86.97-173.45,137.69-231.78C303.31,53.59,378.21,10.14,459.16,1.24c71.63-7.87,110.53,23.09,130.55,50.45,30.77,42.05,36.87,102.35,28.66,166.21,46.11-18.03,91.34-29.06,136.9-33.45,59.61-5.75,139.46,7.77,184.82,62.95,17.62,21.44,35.05,55.72,30.73,105.24,29.65,7.57,59.15,17.84,88.09,30.75,20.17,9,29.24,32.65,20.24,52.83-9,20.17-32.65,29.24-52.83,20.24-27.04-12.06-52.9-20.72-77.15-26.8-8.99,19-20.47,37.04-34.33,53.94-19.6,23.89-43.5,44.98-71.06,62.69-49.91,32.07-109.7,50.78-159.89,50.04-56.85-.84-97.62-26.85-109.05-69.59-10.72-40.06,6.72-83.16,47.85-118.25,43.06-36.74,108.88-61.99,180.57-69.27,28.96-2.94,58.52-3.02,88.27-.31.23-16.22-4.16-29.68-13.22-40.7-20.61-25.07-66.96-38.79-115.34-34.12-54.43,5.25-109.01,22.08-166.63,51.42-8.21,26.13-17.94,51.59-28.48,75.41-54.37,122.82-154.81,258.55-273.69,271.14-24.71,2.62-46.12-11.48-53.26-35.08-8.14-26.91,4.98-60.04,15.56-82.62,13.9-29.68,34.71-62.88,60.17-96,34.36-44.7,105.88-125.71,212.05-187.13,5.46-21.43,9.3-42.13,11.33-61.4,4.78-45.41-.49-81.23-14.87-100.87-7.12-9.72-20.78-22.18-57.26-18.18-60.17,6.61-117.57,40.82-170.61,101.67-45.16,51.81-87,122.43-124.34,209.89-64.89,151.99-93.34,302.62-93.62,304.12-3.58,19.25-20.39,32.7-39.28,32.7ZM476.84,395.73c-32.16,27.33-62.13,58.01-88.53,90.88-24.55,30.57-41.38,57.16-52.37,77.79,19.55-11.59,39.7-28.46,59.84-50.23,29.33-31.7,57.41-72.85,81.05-118.43ZM848.52,416.95c-13.73,0-26.18.73-37.19,1.85-79.39,8.06-122.07,38.03-136.73,50.54-18.17,15.51-24.39,29.61-22.49,36.72,1.28,4.76,13.26,9.99,32.95,10.28.58,0,1.17.01,1.76.01,53.04,0,134.88-34.51,177.67-99.07-5.49-.22-10.82-.33-15.97-.33Z"/>
      <path class="cls-2" d="M864.49,417.28c-42.79,64.55-124.62,99.06-177.67,99.06l-2.94,79.98c50.19.74,109.98-17.97,159.89-50.04,27.56-17.71,51.47-38.8,71.06-62.69,13.86-16.89,25.33-34.94,34.32-53.93-31.15-7.8-59.67-11.36-84.67-12.38Z"/>
      <path class="cls-1" d="M589.9,318.82c-43.71,22.87-81.41,49.84-113.02,76.74l-.04.17c-23.65,45.59-51.73,86.73-81.05,118.43-20.14,21.77-40.29,38.64-59.84,50.23l-41.78,97.65c118.87-12.6,219.32-148.32,273.69-271.14,10.54-23.81,20.27-49.28,28.47-75.4-2.14,1.09-4.28,2.19-6.43,3.31Z"/>
      <circle class="cls-3" cx="1013.42" cy="556.39" r="39.96"/>
    </g>
  </g>
</svg>